<svg width="23" height="30" viewBox="0 0 23 30" fill="none" xmlns="http://www.w3.org/2000/svg">
<g clip-path="url(#clip0_151_972)">
<g opacity="0.3">
<path opacity="0.3" d="M5.77558 18.0412H5.76163L5.22583 17.8855C5.20745 17.8798 5.192 17.8669 5.1828 17.8497C5.17359 17.8325 5.17137 17.8122 5.1766 17.7934C5.18184 17.7745 5.19411 17.7584 5.21079 17.7487C5.22747 17.7389 5.24723 17.7362 5.26583 17.7412L5.79791 17.895C5.81478 17.9006 5.82908 17.9123 5.83817 17.9279C5.84725 17.9435 5.85051 17.9619 5.84733 17.9797C5.84415 17.9975 5.83476 18.0136 5.82089 18.0249C5.80702 18.0362 5.7896 18.042 5.77186 18.0412H5.77558Z" fill="black"/>
<path opacity="0.3" d="M5.2265 18.4627C5.21133 18.4613 5.19696 18.4551 5.18531 18.4451C5.17367 18.4351 5.16532 18.4217 5.16138 18.4067C5.15845 18.3968 5.15753 18.3864 5.15869 18.3762C5.15985 18.366 5.16306 18.3561 5.16812 18.3472C5.17318 18.3383 5.17999 18.3305 5.18811 18.3244C5.19623 18.3183 5.2055 18.314 5.21533 18.3117L5.75114 18.1731C5.76973 18.169 5.78915 18.1724 5.80532 18.1826C5.8215 18.1928 5.83316 18.2091 5.83786 18.2279C5.84255 18.2467 5.83992 18.2666 5.83052 18.2835C5.82111 18.3004 5.80566 18.3129 5.78741 18.3183L5.25068 18.457C5.243 18.4603 5.23482 18.4622 5.2265 18.4627Z" fill="black"/>
<path opacity="0.3" d="M5.49934 18.968C5.48169 18.9662 5.46522 18.9581 5.45283 18.9452C5.43925 18.9311 5.43164 18.9122 5.43164 18.8925C5.43164 18.8727 5.43925 18.8538 5.45283 18.8398L5.8491 18.4457C5.85584 18.4382 5.86404 18.4321 5.87317 18.4278C5.88231 18.4236 5.8922 18.4213 5.90223 18.4212C5.91226 18.421 5.92222 18.4229 5.9315 18.4268C5.94078 18.4307 5.94917 18.4365 5.95617 18.4438C5.96317 18.4512 5.96862 18.4599 5.97219 18.4695C5.97576 18.479 5.97737 18.4892 5.97693 18.4995C5.97648 18.5097 5.97399 18.5197 5.9696 18.5289C5.96522 18.5382 5.95903 18.5463 5.95142 18.553L5.55701 18.949C5.54921 18.956 5.54006 18.9614 5.53013 18.9646C5.5202 18.9679 5.50972 18.969 5.49934 18.968Z" fill="black"/>
<path opacity="0.3" d="M5.9817 19.2668H5.96774C5.95824 19.2641 5.94938 19.2595 5.94167 19.2532C5.93396 19.2469 5.92758 19.2391 5.92289 19.2302C5.9182 19.2214 5.91531 19.2116 5.91439 19.2016C5.91346 19.1916 5.91453 19.1815 5.91751 19.1719L6.06449 18.6288C6.07011 18.61 6.0827 18.5942 6.09958 18.5848C6.11646 18.5754 6.13627 18.5732 6.15477 18.5785C6.17326 18.5839 6.18897 18.5964 6.19853 18.6134C6.20808 18.6304 6.21072 18.6506 6.20588 18.6696L6.05518 19.2127C6.05062 19.2288 6.04091 19.2429 6.02759 19.2527C6.01427 19.2625 5.99811 19.2675 5.9817 19.2668Z" fill="black"/>
</g>
<path d="M20.512 10.8354L19.179 11.6187L16.26 12.0498C16.26 12.0498 14.1289 8.78166 13.8024 8.26798C13.4759 7.75431 13.0936 7.42483 12.209 7.42578L12.3764 10.0331C12.4043 10.1176 14.1689 12.3366 15.3326 13.5462C15.7438 13.9725 15.9959 14.0817 16.6349 13.8994C18.2749 13.4351 20.2627 12.0593 20.4227 11.7156C20.6376 11.2665 20.4962 10.8449 20.512 10.8354Z" fill="#FFEDE5"/>
<path d="M19.9643 9.18253C20.1392 8.59954 20.8536 8.1248 21.5169 8.3147C21.6219 8.34433 21.7226 8.38807 21.8164 8.44478C22.4675 8.82457 22.9857 9.75033 22.9857 10.5118C22.9878 10.6404 22.9702 10.7686 22.9336 10.8916C22.7596 11.4737 22.0471 11.9522 21.381 11.7614C21.2761 11.7313 21.1755 11.6876 21.0815 11.6313C20.436 11.2515 19.9122 10.3248 19.9122 9.56328C19.9104 9.43439 19.9279 9.30597 19.9643 9.18253Z" fill="#455A64"/>
<path d="M21.0833 11.6256C20.4378 11.2458 19.9141 10.3191 19.9141 9.55758C19.9141 8.79609 20.4378 8.48845 21.0833 8.86825C21.7289 9.24804 22.2498 10.1738 22.2498 10.9353C22.2498 11.6968 21.7289 12.0054 21.0833 11.6256Z" fill="#37474F"/>
<path d="M21.083 9.71226C20.8347 9.56604 20.6328 9.68472 20.6328 9.97717C20.6413 10.1366 20.6864 10.2917 20.7647 10.43C20.8429 10.5682 20.952 10.6857 21.083 10.7728C21.3314 10.9191 21.5323 10.8004 21.5323 10.5079C21.5241 10.3486 21.4791 10.1935 21.401 10.0552C21.3229 9.91694 21.214 9.79944 21.083 9.71226Z" fill="#455A64"/>
<path d="M20.928 10.1519C20.931 10.2065 20.9465 10.2596 20.9733 10.3069C21.0001 10.3543 21.0375 10.3945 21.0824 10.4244C21.0971 10.4352 21.1143 10.4422 21.1323 10.4447C21.1503 10.4472 21.1686 10.4451 21.1856 10.4386L21.1968 10.432C21.2101 10.4203 21.2206 10.4057 21.2273 10.3892C21.2341 10.3727 21.237 10.3549 21.2359 10.337C21.2329 10.2825 21.2175 10.2295 21.1908 10.1822C21.1642 10.1348 21.127 10.0946 21.0824 10.0645C21.0676 10.0537 21.0505 10.0467 21.0325 10.0442C21.0145 10.0417 20.9962 10.0438 20.9791 10.0503L20.968 10.0569C20.9544 10.0684 20.9438 10.083 20.9368 10.0995C20.9299 10.116 20.9268 10.134 20.928 10.1519Z" fill="#37474F"/>
<path d="M18.4593 11.6074C18.4621 11.662 18.4775 11.715 18.5042 11.7624C18.5309 11.8097 18.568 11.85 18.6127 11.88C18.6327 11.8931 18.6559 11.9003 18.6797 11.9008C18.6978 11.9005 18.7154 11.8952 18.7309 11.8856L21.1866 10.4386L21.1978 10.432C21.2111 10.4203 21.2216 10.4057 21.2283 10.3892C21.2351 10.3727 21.238 10.3549 21.2369 10.337C21.2339 10.2825 21.2185 10.2295 21.1918 10.1822C21.1652 10.1348 21.128 10.0946 21.0834 10.0645C21.0686 10.0537 21.0515 10.0467 21.0335 10.0442C21.0155 10.0417 20.9972 10.0438 20.9801 10.0503L20.969 10.0569L18.5132 11.504C18.4956 11.5143 18.4812 11.5295 18.4716 11.5478C18.4621 11.5661 18.4578 11.5868 18.4593 11.6074Z" fill="#FAFAFA"/>
<path d="M16.0474 11.4907C16.2214 10.9087 16.9339 10.4273 17.6 10.6181C17.7051 10.6483 17.8061 10.692 17.9004 10.7482C18.546 11.128 19.0697 12.0547 19.0697 12.8162C19.0713 12.9448 19.0537 13.0728 19.0176 13.196C18.8427 13.778 18.1311 14.2566 17.4651 14.0667C17.3602 14.0365 17.2596 13.9927 17.1655 13.9366C16.52 13.5568 15.9963 12.6301 15.9963 11.8696C15.9941 11.7413 16.0114 11.6135 16.0474 11.4907Z" fill="#455A64"/>
<path d="M17.1654 13.9328C16.5198 13.553 15.9961 12.6263 15.9961 11.8658C15.9961 11.1052 16.5198 10.7957 17.1654 11.1755C17.8109 11.5553 18.3346 12.482 18.3346 13.2435C18.3346 14.005 17.8119 14.3136 17.1654 13.9328Z" fill="#37474F"/>
<path d="M17.1661 12.0178C16.9177 11.8706 16.7168 11.9893 16.7168 12.2827C16.7252 12.4419 16.7703 12.5968 16.8483 12.7349C16.9264 12.873 17.0353 12.9903 17.1661 13.0774C17.4145 13.2236 17.6163 13.1049 17.6163 12.8125C17.6077 12.6532 17.5625 12.4983 17.4843 12.3602C17.406 12.2221 17.297 12.1048 17.1661 12.0178Z" fill="#455A64"/>
<path d="M17.012 12.4594C17.0148 12.5139 17.0302 12.567 17.0569 12.6143C17.0835 12.6616 17.1207 12.7019 17.1654 12.7319C17.1802 12.7427 17.1973 12.7497 17.2153 12.7522C17.2333 12.7547 17.2517 12.7526 17.2687 12.7461C17.2728 12.7447 17.2766 12.7424 17.2799 12.7395C17.2933 12.7279 17.304 12.7133 17.3109 12.6969C17.3179 12.6804 17.3209 12.6624 17.3199 12.6445C17.3168 12.5899 17.3012 12.5368 17.2744 12.4895C17.2476 12.4422 17.2103 12.4019 17.1654 12.372C17.1507 12.3615 17.1337 12.3548 17.1159 12.3525C17.0981 12.3502 17.0799 12.3523 17.0631 12.3587L17.052 12.3654C17.0384 12.3767 17.0278 12.3911 17.0208 12.4074C17.0138 12.4238 17.0108 12.4416 17.012 12.4594Z" fill="#37474F"/>
<path d="M16.639 12.6824C16.6416 12.7369 16.6569 12.7901 16.6836 12.8375C16.7103 12.8848 16.7476 12.9251 16.7924 12.9549C16.8124 12.968 16.8356 12.9753 16.8594 12.9758C16.8775 12.9753 16.8951 12.9701 16.9106 12.9606L17.2678 12.7498C17.2719 12.7484 17.2757 12.7461 17.2789 12.7431C17.2924 12.7316 17.303 12.717 17.31 12.7005C17.3169 12.684 17.32 12.6661 17.3189 12.6482C17.3159 12.5936 17.3003 12.5405 17.2735 12.4932C17.2467 12.4459 17.2094 12.4056 17.1645 12.3757C17.1498 12.3652 17.1328 12.3584 17.115 12.3561C17.0971 12.3538 17.079 12.356 17.0622 12.3624L17.051 12.369L16.6929 12.5789C16.6753 12.5892 16.6609 12.6044 16.6513 12.6227C16.6418 12.641 16.6375 12.6617 16.639 12.6824Z" fill="#FAFAFA"/>
<path d="M16.639 12.6825C16.6417 12.7372 16.657 12.7904 16.6837 12.8379C16.7103 12.8855 16.7476 12.9259 16.7924 12.9559C16.8073 12.9665 16.8245 12.9732 16.8425 12.9755C16.8604 12.9778 16.8787 12.9757 16.8957 12.9692L16.9069 12.9626C16.9204 12.9512 16.9312 12.9366 16.9381 12.9201C16.9451 12.9035 16.9481 12.8856 16.9469 12.8676C16.9437 12.8129 16.9281 12.7597 16.9013 12.7123C16.8745 12.6648 16.8372 12.6244 16.7924 12.5942C16.7775 12.5837 16.7604 12.5769 16.7424 12.5746C16.7244 12.5723 16.7062 12.5745 16.6892 12.5809L16.678 12.5875C16.6647 12.5991 16.6542 12.6138 16.6474 12.6303C16.6406 12.6468 16.6377 12.6646 16.639 12.6825Z" fill="#E0E0E0"/>
<path d="M19.6597 12.3842C20.2243 11.9446 20.7657 11.9475 20.668 10.8727C20.5852 10.3979 20.4699 10.3637 20.0169 10.1833C19.8178 10.1045 19.5518 10.0447 19.3927 10.2308C19.3753 10.2542 19.356 10.2761 19.3351 10.2963C19.2881 10.3268 19.2343 10.3445 19.1788 10.3476C19.0727 10.3529 18.9719 10.3963 18.8941 10.4701C18.8411 10.5318 18.8206 10.6163 18.7686 10.678C18.7185 10.7264 18.6647 10.7705 18.6076 10.81C18.5667 10.8462 18.5338 10.8908 18.5109 10.9408C18.4879 10.9909 18.4756 11.0453 18.4746 11.1005C18.4784 11.1637 18.4956 11.2252 18.5252 11.2809C18.5548 11.3365 18.5959 11.3848 18.6458 11.4224L18.9304 11.2553C19.0467 11.1736 19.2867 11.4651 19.1834 11.619C19.0188 11.8639 19.6597 12.3842 19.6597 12.3842Z" fill="#FFEDE5"/>
<path d="M13.0824 14.5451C13.2628 13.8007 13.3149 11.9407 13.3149 11.9407L8.0332 12.1021L8.32064 13.2766C8.36806 13.5414 8.39327 13.8098 8.39598 14.0789C8.39598 14.0789 8.90853 15.0484 10.4285 15.2183C11.3624 15.3092 12.2988 15.0717 13.0824 14.5451Z" fill="#FFEDE5"/>
<path d="M13.3182 11.9408C13.3247 11.9997 13.2875 12.5627 13.2875 12.5627C12.6121 13.1429 10.4457 13.4363 8.1713 12.6643L7.68945 10.7653C7.68945 10.7653 9.32476 10.0323 8.21967 7.57314L9.40755 7.47819L11.5163 7.42407H12.2084C12.7775 7.98839 13.2584 8.63843 13.6344 9.35154C13.9107 9.87756 14.2623 10.6485 13.3182 11.9408Z" fill="#455A64"/>
<path d="M10.3299 11.9578C9.37833 11.71 9.14019 11.1032 9.07229 10.657C9.07229 10.657 8.89276 11.9578 10.2527 12.2607C11.6871 12.5797 12.2769 11.4204 12.2769 11.4204C12.2769 11.4204 11.4778 12.2569 10.3299 11.9578Z" fill="#37474F"/>
<path d="M2.22928 26.4327C1.95022 26.6407 1.30744 26.691 0.740942 26.4194C0.174444 26.1479 -0.0618297 25.375 0.0442143 24.7778C0.172583 24.0495 0.525133 23.6517 0.614433 23.213C0.703733 22.7743 0.614433 22.1686 0.750244 21.7774C0.806227 21.627 0.893402 21.4908 1.00579 21.378C1.11819 21.2653 1.25314 21.1786 1.40139 21.1241C1.49591 21.0868 1.59754 21.0722 1.69849 21.0812C1.79943 21.0903 1.897 21.1228 1.9837 21.1763L2.15114 21.277L2.22928 26.4327Z" fill="#263238"/>
<path d="M2.89449 23.6555L2.45357 25.0057C2.45357 25.0057 2.73263 25.9684 2.57543 26.2248C2.3438 26.6046 1.93544 26.6711 1.24802 26.4565C0.46199 26.2125 0.276878 25.4861 0.317807 24.9221C0.37362 24.1179 1.10197 23.5131 1.01826 22.7383C0.977326 22.3585 1.02849 21.9341 1.2322 21.6074C1.46011 21.2428 1.83405 21.1745 2.22195 21.2932C2.55496 21.3957 2.84705 21.6093 3.1289 21.8097C3.20982 21.8622 3.28309 21.9262 3.34657 21.9996C3.39707 22.0683 3.43489 22.1458 3.4582 22.2284C3.50919 22.3943 3.52443 22.5696 3.50285 22.7421C3.48238 22.9035 3.38099 22.9975 3.28704 23.1219L2.89449 23.6555Z" fill="url(#paint0_linear_151_972)"/>
<path d="M4.79545 23.0166C4.76848 23.0062 3.42153 22.127 3.27642 22.0605C3.13131 21.994 2.77411 21.9 2.429 22.7157C2.18249 23.2958 2.5369 23.5104 2.5369 23.5104L4.11826 24.4694L4.79545 23.0166Z" fill="#FFEDE5"/>
<path d="M2.45268 25.0057C2.16768 24.8603 1.85216 24.7882 1.53363 24.7958C1.50998 24.7981 1.48615 24.7944 1.46423 24.785C1.44231 24.7757 1.42296 24.761 1.4079 24.7423C1.39284 24.7235 1.38252 24.7013 1.37784 24.6775C1.37316 24.6537 1.37428 24.6292 1.38108 24.6059C1.39003 24.5783 1.40683 24.5539 1.42936 24.536C1.45188 24.5181 1.47911 24.5074 1.50759 24.5053C1.72061 24.4882 2.2378 24.4815 2.58105 24.7702C2.67221 24.9582 2.45268 25.0057 2.45268 25.0057Z" fill="url(#paint1_linear_151_972)"/>
<path d="M2.61588 24.3885C2.33874 24.2283 2.02732 24.14 1.70893 24.1312C1.68495 24.1324 1.66106 24.1276 1.63938 24.117C1.61771 24.1065 1.59893 24.0906 1.58473 24.0709C1.57054 24.0511 1.56137 24.0281 1.55804 24.0038C1.55471 23.9795 1.55734 23.9548 1.56568 23.9318C1.57594 23.9046 1.59386 23.881 1.6172 23.8641C1.64053 23.8472 1.66824 23.8378 1.69684 23.8369C1.91079 23.8312 2.42798 23.853 2.75635 24.1588C2.83727 24.3534 2.61588 24.3885 2.61588 24.3885Z" fill="url(#paint2_linear_151_972)"/>
<path opacity="0.3" d="M2.45268 25.0057C2.16768 24.8603 1.85216 24.7882 1.53363 24.7958C1.50998 24.7981 1.48615 24.7944 1.46423 24.785C1.44231 24.7757 1.42296 24.761 1.4079 24.7423C1.39284 24.7235 1.38252 24.7013 1.37784 24.6775C1.37316 24.6537 1.37428 24.6292 1.38108 24.6059C1.39003 24.5783 1.40683 24.5539 1.42936 24.536C1.45188 24.5181 1.47911 24.5074 1.50759 24.5053C1.72061 24.4882 2.2378 24.4815 2.58105 24.7702C2.67221 24.9582 2.45268 25.0057 2.45268 25.0057Z" fill="black"/>
<path opacity="0.3" d="M2.61588 24.3885C2.33874 24.2283 2.02732 24.14 1.70893 24.1312C1.68495 24.1324 1.66106 24.1276 1.63938 24.117C1.61771 24.1065 1.59893 24.0906 1.58473 24.0709C1.57054 24.0511 1.56137 24.0281 1.55804 24.0038C1.55471 23.9795 1.55734 23.9548 1.56568 23.9318C1.57594 23.9046 1.59386 23.881 1.6172 23.8641C1.64053 23.8472 1.66824 23.8378 1.69684 23.8369C1.91079 23.8312 2.42798 23.853 2.75635 24.1588C2.83727 24.3534 2.61588 24.3885 2.61588 24.3885Z" fill="black"/>
<path d="M16.3425 26.5789L18.0922 25.8706C18.0624 25.4101 17.9508 24.7967 18.0671 23.5918L16.082 23.2063V25.2344L16.3425 26.5789Z" fill="#FFEDE5"/>
<path d="M21.3356 28.1478C21.3821 28.2915 21.3735 28.448 21.3114 28.5855C21.2519 28.7137 20.5961 29.0906 19.7115 29.0298C19.0555 28.9829 18.4237 28.7577 17.8818 28.3775C17.545 28.1497 17.1934 28.1069 16.7562 28.0813C16.319 28.0557 15.7423 27.8325 15.6465 27.6236C15.5507 27.4148 15.6613 27.054 15.6613 27.054L21.3356 28.1478Z" fill="#263238"/>
<path d="M17.7654 25.3295L17.8352 25.3143C17.8731 25.3039 17.9128 25.302 17.9515 25.3086C17.9945 25.3222 18.0326 25.3482 18.0613 25.3836C18.1478 25.4963 18.2233 25.6175 18.2864 25.7454C18.4724 26.054 18.8612 26.3103 19.2863 26.5429C19.5756 26.7015 19.8584 26.8278 20.157 26.9617C20.4556 27.0955 20.8649 27.1867 21.103 27.351C21.45 27.5893 21.4956 28.1894 21.103 28.4258C20.7626 28.6309 19.8649 28.8521 18.9236 28.5796C18.4101 28.4315 17.8408 27.8722 17.1683 27.82C16.7404 27.7858 15.9301 27.6633 15.6548 27.332C15.5534 27.1848 15.6892 26.7176 15.8008 26.3151C15.9227 25.8755 15.9673 25.1007 16.1106 25.1396C16.1106 25.1396 16.0715 25.2488 16.1273 25.3077C16.1832 25.3665 16.3794 25.4843 16.4371 25.5336C16.5336 25.6341 16.6114 25.7515 16.6669 25.8802C16.6899 25.9383 16.7329 25.9859 16.7878 26.0141C16.8604 26.0416 16.9143 25.9951 16.9738 25.9657C17.0543 25.9289 17.145 25.9225 17.2296 25.9476C17.2215 25.8604 17.2062 25.774 17.1841 25.6894C17.1745 25.6626 17.1723 25.6337 17.1776 25.6058C17.1893 25.5797 17.2084 25.5579 17.2324 25.5431C17.3935 25.4347 17.5751 25.3619 17.7654 25.3295Z" fill="url(#paint3_linear_151_972)"/>
<path d="M18.887 26.3058C18.887 26.3058 18.8256 26.1377 18.5717 26.0903C18.3764 26.0532 18.0322 26.1994 17.8182 26.3751C17.7981 26.3921 17.7823 26.4138 17.7722 26.4383C17.7622 26.4629 17.7581 26.4896 17.7604 26.5162C17.7627 26.5427 17.7713 26.5683 17.7854 26.5907C17.7995 26.6131 17.8188 26.6316 17.8415 26.6448C17.8707 26.6618 17.9044 26.669 17.9378 26.6652C17.9713 26.6614 18.0027 26.647 18.0275 26.6239C18.263 26.4085 18.571 26.2945 18.887 26.3058Z" fill="url(#paint4_linear_151_972)"/>
<path d="M19.4902 26.6504C19.4481 26.5897 19.3923 26.5402 19.3276 26.506C19.2628 26.4718 19.191 26.4539 19.1181 26.4539C19.1181 26.4539 18.6093 26.469 18.294 26.7681C18.2748 26.7846 18.2597 26.8056 18.2501 26.8293C18.2406 26.8529 18.2367 26.8786 18.2389 26.9041C18.2411 26.9297 18.2492 26.9543 18.2627 26.9759C18.2762 26.9975 18.2946 27.0155 18.3163 27.0283C18.3439 27.044 18.3757 27.0504 18.407 27.0466C18.4384 27.0429 18.4679 27.0292 18.4912 27.0074C18.621 26.8756 18.7782 26.7751 18.951 26.7133C19.1239 26.6515 19.3082 26.63 19.4902 26.6504Z" fill="url(#paint5_linear_151_972)"/>
<path d="M20.1582 26.9618C20.1097 26.9054 20.0498 26.8604 19.9828 26.8298C19.9157 26.7992 19.8429 26.7836 19.7694 26.7842C19.7694 26.7842 19.295 26.8022 18.9806 27.1013C18.9612 27.1176 18.9459 27.1385 18.9361 27.1622C18.9263 27.1858 18.9223 27.2116 18.9244 27.2371C18.9265 27.2627 18.9346 27.2874 18.9482 27.3091C18.9617 27.3307 18.9802 27.3487 19.002 27.3615C19.0298 27.3771 19.0617 27.3835 19.0932 27.3797C19.1247 27.376 19.1543 27.3623 19.1778 27.3406C19.3011 27.2039 19.4539 27.0985 19.6241 27.0327C19.7943 26.967 19.9772 26.9427 20.1582 26.9618Z" fill="url(#paint6_linear_151_972)"/>
<path opacity="0.3" d="M18.887 26.3058C18.887 26.3058 18.8256 26.1377 18.5717 26.0903C18.3764 26.0532 18.0322 26.1994 17.8182 26.3751C17.7981 26.3921 17.7823 26.4138 17.7722 26.4383C17.7622 26.4629 17.7581 26.4896 17.7604 26.5162C17.7627 26.5427 17.7713 26.5683 17.7854 26.5907C17.7995 26.6131 17.8188 26.6316 17.8415 26.6448C17.8707 26.6618 17.9044 26.669 17.9378 26.6652C17.9713 26.6614 18.0027 26.647 18.0275 26.6239C18.263 26.4085 18.571 26.2945 18.887 26.3058Z" fill="black"/>
<path opacity="0.3" d="M19.4902 26.6504C19.4481 26.5897 19.3923 26.5402 19.3276 26.506C19.2628 26.4718 19.191 26.4539 19.1181 26.4539C19.1181 26.4539 18.6093 26.469 18.294 26.7681C18.2748 26.7846 18.2597 26.8056 18.2501 26.8293C18.2406 26.8529 18.2367 26.8786 18.2389 26.9041C18.2411 26.9297 18.2492 26.9543 18.2627 26.9759C18.2762 26.9975 18.2946 27.0155 18.3163 27.0283C18.3439 27.044 18.3757 27.0504 18.407 27.0466C18.4384 27.0429 18.4679 27.0292 18.4912 27.0074C18.621 26.8756 18.7782 26.7751 18.951 26.7133C19.1239 26.6515 19.3082 26.63 19.4902 26.6504Z" fill="black"/>
<path opacity="0.3" d="M20.1582 26.9618C20.1097 26.9054 20.0498 26.8604 19.9828 26.8298C19.9157 26.7992 19.8429 26.7836 19.7694 26.7842C19.7694 26.7842 19.295 26.8022 18.9806 27.1013C18.9612 27.1176 18.9459 27.1385 18.9361 27.1622C18.9263 27.1858 18.9223 27.2116 18.9244 27.2371C18.9265 27.2627 18.9346 27.2874 18.9482 27.3091C18.9617 27.3307 18.9802 27.3487 19.002 27.3615C19.0298 27.3771 19.0617 27.3835 19.0932 27.3797C19.1247 27.376 19.1543 27.3623 19.1778 27.3406C19.3011 27.2039 19.4539 27.0985 19.6241 27.0327C19.7943 26.967 19.9772 26.9427 20.1582 26.9618Z" fill="black"/>
<path d="M17.5385 16.394C16.2083 16.0892 13.0317 15.4112 13.0317 15.4112L13.0828 14.5453C11.934 15.153 9.51266 14.9811 8.39641 14.0791L8.2206 14.9973C7.79737 15.5145 7.43086 16.0774 7.12761 16.676C6.87273 17.1915 6.44669 17.9958 6.87087 19.8691C7.12016 20.9696 7.45225 23.8665 7.45225 23.8665L4.19651 22.6416C4.19651 22.6416 3.91745 22.69 3.68118 23.3129C3.54165 23.6813 3.49514 24.0355 3.63653 24.2187C4.8272 25.1787 6.75645 26.7463 8.70617 27.6255C10.0085 28.1344 10.7005 27.0169 10.7638 26.6029C11.0084 25.0172 11.2903 19.9223 11.2903 19.9223L15.6437 19.7808C15.4995 20.622 16.0855 23.9092 16.0855 23.9092C16.0855 23.9092 17.1571 24.3839 18.0446 23.8978C18.0446 23.8978 18.638 20.115 18.6957 18.8531C18.7543 17.446 18.825 16.6893 17.5385 16.394Z" fill="url(#paint7_linear_151_972)"/>
<path opacity="0.15" d="M15.6444 19.7807C15.6444 19.5537 15.7923 18.7609 16.2956 18.3384C16.2956 18.3384 15.6053 18.4647 15.2891 19.7921L15.6444 19.7807Z" fill="black"/>
<path opacity="0.15" d="M7.45262 23.8664C7.45262 23.8664 7.54564 25.1168 7.78005 25.7264C7.78005 25.7264 7.19309 24.644 7.12891 23.7429L7.45262 23.8664Z" fill="black"/>
<path opacity="0.15" d="M13.0318 15.4113L13.083 14.5463C11.9342 15.153 9.51379 14.9811 8.39847 14.0801L8.22266 14.9973C8.23196 15.0058 8.94822 15.7616 10.8105 15.8594C12.6728 15.9572 13.0318 15.4113 13.0318 15.4113Z" fill="black"/>
<path opacity="0.15" d="M11.2948 19.9223C11.2794 19.4523 11.1705 18.9905 10.9748 18.5648C10.7791 18.1391 10.5006 17.7585 10.1562 17.446C10.1562 17.446 11.1572 17.9208 11.492 19.4238C11.492 19.4238 12.2362 19.0697 12.625 18.0081C12.625 18.0081 12.506 19.0697 11.9069 19.6736L13.7124 19.8435L11.2948 19.9223Z" fill="black"/>
<path d="M10.7133 0.718754C10.3311 0.71813 9.95255 0.79441 9.59927 0.943233C9.246 1.09206 8.92494 1.3105 8.65444 1.58608C8.38394 1.86165 8.16932 2.18895 8.02284 2.54926C7.87636 2.90957 7.8009 3.29582 7.80078 3.68592C7.80078 4.07609 7.87615 4.46244 8.02257 4.82286C8.16899 5.18328 8.3836 5.51069 8.65411 5.78637C8.92462 6.06204 9.24573 6.28057 9.59906 6.42946C9.95239 6.57834 10.331 6.65465 10.7133 6.65403C11.4836 6.65277 12.2219 6.33947 12.7661 5.78295C13.3103 5.22643 13.6158 4.4722 13.6155 3.68592C13.6155 2.8998 13.3099 2.14581 12.7658 1.58949C12.2216 1.03318 11.4834 0.720012 10.7133 0.718754Z" fill="#263238"/>
<path d="M7.67745 2.52265C7.78259 2.51774 7.88794 2.52378 7.99187 2.54069C8.02709 2.54305 8.06021 2.55861 8.08489 2.58437C8.09921 2.60567 8.10728 2.6307 8.10814 2.65653C8.13215 2.82137 8.11716 2.98969 8.06442 3.14741C8.02349 3.25756 7.89605 3.31358 7.81513 3.39333C7.50071 3.70477 7.4756 4.22034 7.59932 4.64856C7.72304 5.07678 7.9714 5.45848 8.13233 5.87246C8.29325 6.28643 8.37883 6.78492 8.15093 7.20174C8.06256 7.36126 7.90164 7.48659 7.92117 7.67649C7.94349 7.90911 8.14256 8.1313 8.22814 8.34113C8.32208 8.58973 8.35404 8.85824 8.32116 9.12257C8.29761 9.4512 8.17804 9.76508 7.97791 10.0236C7.82493 10.2056 7.62743 10.343 7.40554 10.4217C7.18364 10.5004 6.94526 10.5177 6.71469 10.4718C6.61747 10.4545 6.52548 10.4145 6.44586 10.355C6.30911 10.243 6.25423 10.0597 6.17982 9.89735C5.94075 9.37228 5.43565 8.99059 5.28216 8.43323C5.11565 7.8398 5.39286 7.22263 5.73331 6.71845C5.89238 6.48298 6.07005 6.25225 6.14819 5.9769C6.2533 5.60565 6.16121 5.21066 6.13703 4.82422C6.11395 4.44674 6.15646 4.06808 6.2626 3.70572C6.33888 3.44366 6.45702 3.14172 6.65701 2.95372C6.93769 2.69325 7.29854 2.54081 7.67745 2.52265Z" fill="#263238"/>
<path d="M12.5316 2.07642C12.8497 2.27106 13.2413 3.09237 13.1957 4.81095C13.1567 6.26747 12.6925 6.62543 12.4599 6.72893C12.2274 6.83242 11.779 6.76596 11.3437 6.69V7.56448C11.3437 7.56448 11.9427 8.2804 11.9018 8.68203C11.8609 9.08366 11.0311 9.17387 10.4693 8.77698C9.90743 8.38009 9.43581 7.61765 9.43581 7.61765L9.45442 5.60663C9.45442 5.60663 9.19489 5.86299 8.76048 5.4737C8.40421 5.15182 8.28514 4.61156 8.56607 4.32671C8.84699 4.04186 9.36326 4.11877 9.56046 4.53275C9.56046 4.53275 10.2544 4.56124 11.1818 4.04661C11.5426 3.84952 11.8528 3.56844 12.0873 3.22614C12.3218 2.88384 12.474 2.48996 12.5316 2.07642Z" fill="#FFEDE5"/>
<path d="M11.6032 4.43889C11.6034 4.47489 11.5931 4.51014 11.5738 4.54023C11.5544 4.57033 11.5268 4.59395 11.4944 4.60814C11.462 4.62233 11.4262 4.62646 11.3915 4.62002C11.3569 4.61358 11.3248 4.59685 11.2993 4.57192C11.2739 4.54699 11.2562 4.51497 11.2485 4.47984C11.2408 4.44472 11.2434 4.40806 11.2559 4.37442C11.2685 4.34079 11.2905 4.31168 11.3192 4.29072C11.3478 4.26977 11.3819 4.2579 11.4172 4.25659C11.4652 4.25655 11.5115 4.27551 11.5461 4.3095C11.5808 4.34349 11.6013 4.38986 11.6032 4.43889Z" fill="#263238"/>
<g style="mix-blend-mode:multiply" opacity="0.5">
<g style="mix-blend-mode:multiply" opacity="0.5">
<path d="M11.6449 5.67407L12.0607 5.8108C12.0531 5.83929 12.04 5.86593 12.0221 5.88912C12.0042 5.91231 11.9819 5.93158 11.9565 5.94576C11.9312 5.95995 11.9033 5.96876 11.8745 5.97167C11.8457 5.97459 11.8166 5.97154 11.789 5.96272C11.733 5.94318 11.6865 5.90211 11.6596 5.84823C11.6327 5.79434 11.6274 5.73188 11.6449 5.67407Z" fill="#F28F8F"/>
</g>
</g>
<path d="M13.0767 3.88238L12.7148 3.62412C12.73 3.59911 12.75 3.57753 12.7736 3.56071C12.7973 3.54389 12.824 3.53218 12.8523 3.52631C12.8805 3.52044 12.9096 3.52053 12.9378 3.52657C12.966 3.53262 12.9927 3.54449 13.0162 3.56145C13.0643 3.59715 13.0973 3.65016 13.1085 3.70974C13.1197 3.76932 13.1084 3.83103 13.0767 3.88238Z" fill="#263238"/>
<path d="M12.9919 4.31172C12.9922 4.34776 12.9821 4.3831 12.9629 4.41332C12.9437 4.44354 12.9161 4.4673 12.8838 4.48164C12.8514 4.49597 12.8155 4.50024 12.7808 4.4939C12.746 4.48757 12.7139 4.47092 12.6884 4.44603C12.6628 4.42114 12.645 4.38912 12.6372 4.35397C12.6294 4.31883 12.632 4.28212 12.6445 4.24843C12.657 4.21474 12.679 4.18557 12.7077 4.16458C12.7364 4.14358 12.7705 4.13168 12.8058 4.13037C12.8537 4.13032 12.8998 4.14915 12.9345 4.18294C12.9692 4.21672 12.9897 4.26286 12.9919 4.31172Z" fill="#263238"/>
<g style="mix-blend-mode:multiply" opacity="0.5">
<g style="mix-blend-mode:multiply" opacity="0.5">
<path d="M12.1445 4.20337L12.1687 5.30668L12.738 5.12912L12.1445 4.20337Z" fill="#F28F8F"/>
</g>
</g>
<g style="mix-blend-mode:multiply" opacity="0.5">
<g style="mix-blend-mode:multiply" opacity="0.5">
<path d="M11.3448 6.69001C10.8852 6.62734 9.94199 6.34629 9.79688 5.9646C9.85533 6.15748 9.97024 6.32746 10.1262 6.45169C10.4071 6.70045 11.3429 6.9853 11.3429 6.9853L11.3448 6.69001Z" fill="#F28F8F"/>
</g>
</g>
<path d="M8.22012 7.57397C7.31968 7.63949 6.94852 7.75628 6.44714 8.89187C5.99599 9.91257 4.91694 12.5541 4.64718 13.1427C4.37742 13.7314 4.32626 13.9679 4.55416 14.5841C4.7402 15.0864 6.26017 17.9719 6.42668 18.3925C6.59318 18.8131 6.66667 19.2385 6.95038 19.7284C7.2341 20.2184 7.68246 20.6969 8.03687 20.8099C8.56244 20.9779 9.24614 20.7444 9.26568 20.4206C9.28521 20.0968 8.49453 19.5566 8.27965 18.8378C8.42265 18.9337 8.57325 19.0172 8.72988 19.0875C8.94289 19.1768 9.18103 19.1568 9.25172 19.0334C9.32242 18.91 9.1094 18.8349 8.91964 18.6422C8.80615 18.5273 8.60523 18.269 8.34849 18.0412C8.17454 17.8874 7.8899 17.8418 7.76153 17.6728C7.69269 17.5826 7.38014 16.8011 7.1448 16.1052C6.85457 15.2421 6.47226 14.0932 6.47226 14.0932L8.03687 10.77C8.03687 10.77 9.26382 9.52043 8.22012 7.57397Z" fill="#FFEDE5"/>
<path d="M6.42378 18.3927C6.42378 18.3927 6.78377 17.6493 7.75863 17.673L7.50096 17.0881C7.50096 17.0881 6.54936 17.1565 6.14844 17.8145L6.42378 18.3927Z" fill="#37474F"/>
<path d="M6.31809 17.7612L6.52739 18.0641C6.54254 18.0861 6.56188 18.1048 6.58426 18.119C6.60663 18.1332 6.63159 18.1427 6.65764 18.1469C6.68368 18.151 6.71028 18.1498 6.73585 18.1432C6.76142 18.1367 6.78543 18.1249 6.80645 18.1087L7.17854 17.8239C7.22179 17.79 7.25078 17.7407 7.25959 17.6858C7.26841 17.6309 7.25638 17.5747 7.22598 17.5286L7.03156 17.2361C7.01693 17.2135 6.99796 17.1943 6.97579 17.1794C6.95362 17.1646 6.92873 17.1545 6.90262 17.1498C6.87651 17.1451 6.84974 17.1458 6.82393 17.152C6.79812 17.1582 6.77382 17.1697 6.7525 17.1858L6.35809 17.4706C6.31514 17.5038 6.28682 17.553 6.27933 17.6075C6.27183 17.6619 6.28577 17.7172 6.31809 17.7612Z" fill="#263238"/>
<path d="M6.24886 17.7537L6.46001 18.0566C6.47525 18.0785 6.49463 18.0971 6.51701 18.1112C6.53939 18.1254 6.56432 18.1348 6.59033 18.139C6.61633 18.1431 6.6429 18.1419 6.66844 18.1355C6.69399 18.129 6.71801 18.1173 6.73908 18.1012L7.11116 17.8164C7.15438 17.7826 7.18341 17.7333 7.19239 17.6785C7.20136 17.6236 7.18962 17.5674 7.15953 17.5211L6.96512 17.2286C6.9504 17.2062 6.93139 17.187 6.90922 17.1722C6.88705 17.1574 6.86218 17.1474 6.83611 17.1427C6.81004 17.138 6.7833 17.1387 6.75752 17.1449C6.73173 17.151 6.70742 17.1624 6.68606 17.1783L6.29165 17.4679C6.24939 17.5004 6.22126 17.5485 6.21327 17.6019C6.20527 17.6553 6.21804 17.7098 6.24886 17.7537Z" fill="#455A64"/>
<path d="M7.12047 17.6539C7.11577 17.6914 7.09671 17.7256 7.06745 17.7488L6.69536 18.0337C6.68243 18.0442 6.66743 18.0518 6.65138 18.0559C6.63533 18.06 6.61861 18.0605 6.60234 18.0574C6.58639 18.0549 6.5711 18.0491 6.55736 18.0405C6.54362 18.0319 6.53171 18.0205 6.52234 18.0071L6.31026 17.7033C6.29236 17.678 6.28439 17.6468 6.28793 17.6159C6.28919 17.5971 6.29452 17.5789 6.30353 17.5625C6.31254 17.546 6.325 17.5319 6.34002 17.5209L6.73443 17.2361C6.74762 17.2261 6.7627 17.219 6.7787 17.2153C6.79471 17.2115 6.81131 17.2112 6.82745 17.2143C6.84338 17.2171 6.85859 17.2232 6.87217 17.2322C6.88575 17.2412 6.89743 17.2528 6.90652 17.2665L7.10093 17.5589C7.11918 17.5869 7.12709 17.6205 7.12326 17.6539H7.12047Z" fill="url(#paint8_linear_151_972)"/>
</g>
<defs>
<linearGradient id="paint0_linear_151_972" x1="3.51236" y1="26.5776" x2="-0.768717" y2="26.379" gradientUnits="userSpaceOnUse">
<stop stop-color="#92A3FD"/>
<stop offset="1" stop-color="#9DCEFF"/>
</linearGradient>
<linearGradient id="paint1_linear_151_972" x1="2.60321" y1="25.0057" x2="1.01233" y2="24.7075" gradientUnits="userSpaceOnUse">
<stop stop-color="#92A3FD"/>
<stop offset="1" stop-color="#9DCEFF"/>
</linearGradient>
<linearGradient id="paint2_linear_151_972" x1="2.77414" y1="24.3885" x2="1.18789" y2="24.118" gradientUnits="userSpaceOnUse">
<stop stop-color="#92A3FD"/>
<stop offset="1" stop-color="#9DCEFF"/>
</linearGradient>
<linearGradient id="paint3_linear_151_972" x1="21.3806" y1="28.7064" x2="13.7745" y2="27.7561" gradientUnits="userSpaceOnUse">
<stop stop-color="#92A3FD"/>
<stop offset="1" stop-color="#9DCEFF"/>
</linearGradient>
<linearGradient id="paint4_linear_151_972" x1="18.887" y1="26.6662" x2="17.4089" y2="26.4445" gradientUnits="userSpaceOnUse">
<stop stop-color="#92A3FD"/>
<stop offset="1" stop-color="#9DCEFF"/>
</linearGradient>
<linearGradient id="paint5_linear_151_972" x1="19.4902" y1="27.0477" x2="17.8552" y2="26.7809" gradientUnits="userSpaceOnUse">
<stop stop-color="#92A3FD"/>
<stop offset="1" stop-color="#9DCEFF"/>
</linearGradient>
<linearGradient id="paint6_linear_151_972" x1="20.1582" y1="27.3808" x2="18.5445" y2="27.1224" gradientUnits="userSpaceOnUse">
<stop stop-color="#92A3FD"/>
<stop offset="1" stop-color="#9DCEFF"/>
</linearGradient>
<linearGradient id="paint7_linear_151_972" x1="18.7216" y1="27.7558" x2="-1.47026" y2="26.0227" gradientUnits="userSpaceOnUse">
<stop stop-color="#92A3FD"/>
<stop offset="1" stop-color="#9DCEFF"/>
</linearGradient>
<linearGradient id="paint8_linear_151_972" x1="7.1242" y1="18.0594" x2="6.00837" y2="17.9741" gradientUnits="userSpaceOnUse">
<stop stop-color="#92A3FD"/>
<stop offset="1" stop-color="#9DCEFF"/>
</linearGradient>
<clipPath id="clip0_151_972">
<rect width="22.9688" height="28.3176" fill="white" transform="translate(0.015625 0.71875)"/>
</clipPath>
</defs>
</svg>
